<svg width="28" height="19" viewBox="0 0 28 19" fill="none" xmlns="http://www.w3.org/2000/svg">
<path d="M1.99983 15.9585H17.9998C18.3397 15.9589 18.6665 16.0849 18.9137 16.3109C19.1608 16.5369 19.3095 16.8458 19.3294 17.1745C19.3493 17.5031 19.2389 17.8267 19.0208 18.0792C18.8027 18.3317 18.4933 18.4939 18.1558 18.5328L17.9998 18.5418H1.99983C1.65999 18.5415 1.33312 18.4154 1.086 18.1894C0.838886 17.9634 0.690178 17.6545 0.670262 17.3259C0.650346 16.9972 0.760724 16.6736 0.978845 16.4211C1.19697 16.1687 1.50636 16.0064 1.84382 15.9675L1.99983 15.9585ZM1.99983 10.7918H25.9998C26.3397 10.7922 26.6665 10.9183 26.9136 11.1443C27.1608 11.3703 27.3095 11.6791 27.3294 12.0078C27.3493 12.3365 27.2389 12.6601 27.0208 12.9125C26.8027 13.165 26.4933 13.3272 26.1558 13.3661L25.9998 13.3752H1.99983C1.65999 13.3748 1.33312 13.2487 1.086 13.0227C0.838886 12.7967 0.690178 12.4878 0.670262 12.1592C0.650346 11.8305 0.760724 11.5069 0.978845 11.2545C1.19697 11.002 1.50636 10.8398 1.84382 10.8009L1.99983 10.7918ZM1.99983 5.62516H25.9998C26.3397 5.62553 26.6665 5.75159 26.9136 5.97759C27.1608 6.20359 27.3095 6.51248 27.3294 6.84113C27.3493 7.16979 27.2389 7.4934 27.0208 7.74586C26.8027 7.99832 26.4933 8.16057 26.1558 8.19945L25.9998 8.2085H1.99983C1.65999 8.20813 1.33312 8.08207 1.086 7.85607C0.838886 7.63007 0.690178 7.32118 0.670262 6.99253C0.650346 6.66387 0.760724 6.34026 0.978845 6.0878C1.19697 5.83534 1.50636 5.67309 1.84382 5.6342L1.99983 5.62516ZM1.99983 0.458496H25.9998C26.3397 0.458861 26.6665 0.584923 26.9136 0.810925C27.1608 1.03693 27.3095 1.34581 27.3294 1.67446C27.3493 2.00312 27.2389 2.32674 27.0208 2.5792C26.8027 2.83166 26.4933 2.9939 26.1558 3.03279L25.9998 3.04183H1.99983C1.65999 3.04146 1.33312 2.9154 1.086 2.6894C0.838886 2.4634 0.690178 2.15452 0.670262 1.82586C0.650346 1.49721 0.760724 1.17359 0.978845 0.921129C1.19697 0.668669 1.50636 0.506422 1.84382 0.467538L1.99983 0.458496Z" fill="#004663"/>
</svg>
