<svg width="36" height="33" viewBox="0 0 36 33" fill="none" xmlns="http://www.w3.org/2000/svg">
<path d="M18 10.3335L28 5.7085L18 1.0835V16.5002" stroke="black" stroke-width="3.4" stroke-miterlimit="10" stroke-linecap="round" stroke-linejoin="round"/>
<path d="M11.3334 16.4849L2.16669 21.3257C1.91019 21.4602 1.69685 21.6551 1.54842 21.8908C1.39998 22.1264 1.32178 22.3942 1.32178 22.6669C1.32178 22.9397 1.39998 23.2075 1.54842 23.4431C1.69685 23.6787 1.91019 23.8737 2.16669 24.0082L16.3334 31.5007C16.8401 31.7713 17.4149 31.9138 18 31.9138C18.5851 31.9138 19.16 31.7713 19.6667 31.5007L33.8334 24.0082C34.0899 23.8737 34.3032 23.6787 34.4516 23.4431C34.6001 23.2075 34.6783 22.9397 34.6783 22.6669C34.6783 22.3942 34.6001 22.1264 34.4516 21.8908C34.3032 21.6551 34.0899 21.4602 33.8334 21.3257L24.6667 16.5003M8.81669 17.8107L27.1834 27.5232M27.1834 17.8107L8.83336 27.5232" stroke="black" stroke-width="3.6" stroke-miterlimit="10" stroke-linecap="round" stroke-linejoin="round"/>
</svg>
