<svg width="30" height="30" viewBox="0 0 30 30" fill="none" xmlns="http://www.w3.org/2000/svg">
<g opacity="0.5" clip-path="url(#clip0_716_2954)">
<path d="M27.5 2.81215H23.4375V0.937149C23.4377 0.688508 23.3391 0.449986 23.1634 0.274053C22.9877 0.0981204 22.7493 -0.00081058 22.5006 -0.00097634C22.252 -0.0011421 22.0135 0.097471 21.8375 0.273169C21.6616 0.448867 21.5627 0.687258 21.5625 0.935899V2.81215H15.9375V0.937149C15.9376 0.814034 15.9134 0.69211 15.8664 0.578335C15.8193 0.464561 15.7504 0.361166 15.6634 0.274053C15.5764 0.18694 15.4731 0.117815 15.3593 0.0706258C15.2456 0.0234361 15.1237 -0.000894278 15.0006 -0.000976354C14.752 -0.00114211 14.5135 0.097471 14.3375 0.273169C14.1616 0.448867 14.0627 0.687258 14.0625 0.935899V2.81215H8.4375V0.937149C8.43758 0.814034 8.41341 0.69211 8.36638 0.578335C8.31934 0.464561 8.25035 0.361166 8.16335 0.274053C8.07636 0.18694 7.97305 0.117815 7.85934 0.0706258C7.74563 0.0234361 7.62374 -0.000894278 7.50063 -0.000976354C7.25198 -0.00114211 7.01346 0.097471 6.83753 0.273169C6.6616 0.448867 6.56267 0.687258 6.5625 0.935899V2.81215H2.5C1.83718 2.81215 1.20148 3.07537 0.732675 3.54394C0.26387 4.01251 0.000331412 4.64807 0 5.3109V27.4984C0 28.1614 0.263392 28.7973 0.732233 29.2662C1.20107 29.735 1.83696 29.9984 2.5 29.9984H27.5C28.163 29.9984 28.7989 29.735 29.2678 29.2662C29.7366 28.7973 30 28.1614 30 27.4984V5.3109C29.9997 4.64807 29.7361 4.01251 29.2673 3.54394C28.7985 3.07537 28.1628 2.81215 27.5 2.81215ZM28.125 27.4996C28.125 27.6652 28.0593 27.824 27.9424 27.9411C27.8254 28.0583 27.6668 28.1243 27.5012 28.1246H2.5C2.33424 28.1246 2.17527 28.0588 2.05806 27.9416C1.94085 27.8244 1.875 27.6654 1.875 27.4996V5.31215C1.87533 5.14661 1.94133 4.98795 2.0585 4.87101C2.17567 4.75407 2.33446 4.6884 2.5 4.6884H6.5625V6.5634C6.56233 6.81204 6.66095 7.05056 6.83665 7.22649C7.01234 7.40243 7.25073 7.50136 7.49937 7.50152C7.74802 7.50169 7.98654 7.40308 8.16247 7.22738C8.3384 7.05168 8.43733 6.81329 8.4375 6.56465V4.6884H14.0625V6.5634C14.0623 6.81204 14.1609 7.05056 14.3366 7.22649C14.5123 7.40243 14.7507 7.50136 14.9994 7.50152C15.248 7.50169 15.4865 7.40308 15.6625 7.22738C15.8384 7.05168 15.9373 6.81329 15.9375 6.56465V4.6884H21.5625V6.5634C21.5623 6.81204 21.6609 7.05056 21.8366 7.22649C22.0123 7.40243 22.2507 7.50136 22.4994 7.50152C22.748 7.50169 22.9865 7.40308 23.1625 7.22738C23.3384 7.05168 23.4373 6.81329 23.4375 6.56465V4.6884H27.5C27.6653 4.68873 27.8238 4.75455 27.9407 4.87146C28.0576 4.98836 28.1234 5.14682 28.1238 5.31215L28.125 27.4996Z" fill="black"/>
<path d="M6.5625 11.25H10.3125V14.0625H6.5625V11.25ZM6.5625 15.9375H10.3125V18.75H6.5625V15.9375ZM6.5625 20.625H10.3125V23.4375H6.5625V20.625ZM13.125 20.625H16.875V23.4375H13.125V20.625ZM13.125 15.9375H16.875V18.75H13.125V15.9375ZM13.125 11.25H16.875V14.0625H13.125V11.25ZM19.6875 20.625H23.4375V23.4375H19.6875V20.625ZM19.6875 15.9375H23.4375V18.75H19.6875V15.9375ZM19.6875 11.25H23.4375V14.0625H19.6875V11.25Z" fill="black"/>
</g>
<defs>
<clipPath id="clip0_716_2954">
<rect width="30" height="30" fill="white"/>
</clipPath>
</defs>
</svg>
