<svg width="24" height="24" viewBox="0 0 24 24" fill="none" xmlns="http://www.w3.org/2000/svg">
<path d="M12.0755 2.4165C6.7951 2.4165 2.49219 6.71942 2.49219 11.9998C2.49219 17.2803 6.7951 21.5832 12.0755 21.5832C17.3559 21.5832 21.6589 17.2803 21.6589 11.9998C21.6589 6.71942 17.3559 2.4165 12.0755 2.4165ZM16.6564 9.79567L11.2226 15.2294C11.0884 15.3636 10.9064 15.4403 10.7147 15.4403C10.523 15.4403 10.3409 15.3636 10.2068 15.2294L7.49469 12.5173C7.21677 12.2394 7.21677 11.7794 7.49469 11.5015C7.7726 11.2236 8.2326 11.2236 8.51052 11.5015L10.7147 13.7057L15.6405 8.77984C15.9184 8.50192 16.3784 8.50192 16.6564 8.77984C16.9343 9.05775 16.9343 9.50817 16.6564 9.79567Z" fill="#3EBF8F"/>
</svg>
