<svg width="25" height="26" viewBox="0 0 25 26" fill="none" xmlns="http://www.w3.org/2000/svg">
<path opacity="0.5" d="M12.5 23.4009C15.1522 23.4009 17.6957 22.3473 19.5711 20.4719C21.4464 18.5966 22.5 16.053 22.5 13.4009C22.5 10.7487 21.4464 8.20517 19.5711 6.32981C17.6957 4.45445 15.1522 3.40088 12.5 3.40088C9.84783 3.40088 7.3043 4.45445 5.42893 6.32981C3.55357 8.20517 2.5 10.7487 2.5 13.4009C2.5 16.053 3.55357 18.5966 5.42893 20.4719C7.3043 22.3473 9.84783 23.4009 12.5 23.4009ZM12.5 0.900879C14.1415 0.900879 15.767 1.2242 17.2835 1.85238C18.8001 2.48057 20.1781 3.40131 21.3388 4.56204C22.4996 5.72278 23.4203 7.10077 24.0485 8.61734C24.6767 10.1339 25 11.7594 25 13.4009C25 16.7161 23.683 19.8955 21.3388 22.2397C18.9946 24.5839 15.8152 25.9009 12.5 25.9009C5.5875 25.9009 0 20.2759 0 13.4009C0 10.0857 1.31696 6.90625 3.66117 4.56204C6.00537 2.21784 9.18479 0.900879 12.5 0.900879ZM13.125 7.15088V13.7134L18.75 17.0509L17.8125 18.5884L11.25 14.6509V7.15088H13.125Z" fill="black"/>
</svg>
