<svg width="37" height="37" viewBox="0 0 37 37" fill="none" xmlns="http://www.w3.org/2000/svg">
<path d="M3.0835 10.1311C3.0835 7.8727 3.0835 6.74349 3.46939 5.859C3.93599 4.78955 4.78955 3.93599 5.859 3.46939C6.74349 3.0835 7.8727 3.0835 10.1311 3.0835C12.3895 3.0835 13.5187 3.0835 14.4032 3.46939C15.4727 3.93599 16.3262 4.78955 16.7928 5.859C17.1787 6.74349 17.1787 7.8727 17.1787 10.1311C17.1787 12.3895 17.1787 13.5187 16.7928 14.4032C16.3262 15.4727 15.4727 16.3262 14.4032 16.7928C13.5187 17.1787 12.3895 17.1787 10.1311 17.1787C7.8727 17.1787 6.74349 17.1787 5.859 16.7928C4.78955 16.3262 3.93599 15.4727 3.46939 14.4032C3.0835 13.5187 3.0835 12.3895 3.0835 10.1311Z" stroke="black" stroke-width="3.6" stroke-miterlimit="10" stroke-linecap="round" stroke-linejoin="round"/>
<path d="M3.0835 26.8689C3.0835 24.6105 3.0835 23.4813 3.46939 22.5968C3.93599 21.5273 4.78955 20.6738 5.859 20.2072C6.74349 19.8213 7.8727 19.8213 10.1311 19.8213C12.3895 19.8213 13.5187 19.8213 14.4032 20.2072C15.4727 20.6738 16.3262 21.5273 16.7928 22.5968C17.1787 23.4813 17.1787 24.6105 17.1787 26.8689C17.1787 29.1273 17.1787 30.2565 16.7928 31.141C16.3262 32.2105 15.4727 33.064 14.4032 33.5306C13.5187 33.9165 12.3895 33.9165 10.1311 33.9165C7.8727 33.9165 6.74349 33.9165 5.859 33.5306C4.78955 33.064 3.93599 32.2105 3.46939 31.141C3.0835 30.2565 3.0835 29.1273 3.0835 26.8689Z" stroke="black" stroke-width="3.6" stroke-miterlimit="10" stroke-linecap="round" stroke-linejoin="round"/>
<path d="M19.822 10.1311C19.822 7.8727 19.822 6.74349 20.2079 5.859C20.6745 4.78955 21.5281 3.93599 22.5975 3.46939C23.482 3.0835 24.6112 3.0835 26.8696 3.0835C29.1281 3.0835 30.2573 3.0835 31.1418 3.46939C32.2112 3.93599 33.0648 4.78955 33.5314 5.859C33.9173 6.74349 33.9173 7.8727 33.9173 10.1311C33.9173 12.3895 33.9173 13.5187 33.5314 14.4032C33.0648 15.4727 32.2112 16.3262 31.1418 16.7928C30.2573 17.1787 29.1281 17.1787 26.8696 17.1787C24.6112 17.1787 23.482 17.1787 22.5975 16.7928C21.5281 16.3262 20.6745 15.4727 20.2079 14.4032C19.822 13.5187 19.822 12.3895 19.822 10.1311Z" stroke="black" stroke-width="3.6" stroke-miterlimit="10" stroke-linecap="round" stroke-linejoin="round"/>
<path d="M19.822 26.8694C19.822 24.611 19.822 23.4818 20.2079 22.5973C20.6745 21.5278 21.5281 20.6743 22.5975 20.2077C23.482 19.8218 24.6112 19.8218 26.8696 19.8218C29.1281 19.8218 30.2573 19.8218 31.1418 20.2077C32.2112 20.6743 33.0648 21.5278 33.5314 22.5973C33.9173 23.4818 33.9173 24.611 33.9173 26.8694C33.9173 29.1278 33.9173 30.257 33.5314 31.1415C33.0648 32.211 32.2112 33.0645 31.1418 33.5311C30.2573 33.917 29.1281 33.917 26.8696 33.917C24.6112 33.917 23.482 33.917 22.5975 33.5311C21.5281 33.0645 20.6745 32.211 20.2079 31.1415C19.822 30.257 19.822 29.1278 19.822 26.8694Z" stroke="black" stroke-width="3.6" stroke-miterlimit="10" stroke-linecap="round" stroke-linejoin="round"/>
</svg>
