<svg width="31" height="31" viewBox="0 0 31 31" fill="none" xmlns="http://www.w3.org/2000/svg">
<path d="M26.8865 8.61628C26.8609 8.61628 26.8225 8.61628 26.7841 8.61628C20.0112 7.93771 13.2511 7.68165 6.55507 8.36021L3.94322 8.61628C3.40549 8.66749 2.93177 8.2834 2.88056 7.74566C2.82934 7.20793 3.21344 6.74701 3.73837 6.6958L6.35022 6.43974C13.1615 5.74837 20.0624 6.01723 26.9761 6.6958C27.501 6.74701 27.8851 7.22073 27.8339 7.74566C27.7955 8.24499 27.373 8.61628 26.8865 8.61628Z" fill="#004663"/>
<path d="M10.8831 7.32311C10.8318 7.32311 10.7806 7.32311 10.7166 7.31031C10.2045 7.22069 9.84601 6.72136 9.93563 6.20924L10.2173 4.53202C10.4221 3.30292 10.7038 1.6001 13.687 1.6001L17.0414 1.6001C20.0373 1.6001 20.319 3.36693 20.511 4.54483L20.7927 6.20924C20.8823 6.73417 20.5238 7.23349 20.0117 7.31031C19.4868 7.39993 18.9875 7.04144 18.9106 6.52932L18.629 4.86491C18.4497 3.75103 18.4113 3.53338 17.0542 3.53338L13.6998 3.53338C12.3426 3.53338 12.317 3.71262 12.125 4.8521L11.8305 6.51651C11.7537 6.99023 11.344 7.32311 10.8831 7.32311Z" fill="#004663"/>
<path d="M19.4736 29.1272L11.2539 29.1272C6.78564 29.1272 6.6064 26.6562 6.46556 24.6589L5.63336 11.7661C5.59495 11.2412 6.00465 10.7803 6.52958 10.7419C7.06731 10.7163 7.51542 11.1132 7.55383 11.6381L8.38604 24.5309C8.52687 26.477 8.57808 27.2068 11.2539 27.2068L19.4736 27.2068C22.1622 27.2068 22.2135 26.477 22.3415 24.5309L23.1737 11.6381C23.2121 11.1132 23.673 10.7163 24.1979 10.7419C24.7229 10.7803 25.1326 11.2284 25.0942 11.7661L24.262 24.6589C24.1211 26.6562 23.9419 29.1272 19.4736 29.1272Z" fill="#004663"/>
<path d="M17.4893 22.0855H13.2259C12.7009 22.0855 12.2656 21.6502 12.2656 21.1253C12.2656 20.6003 12.7009 20.165 13.2259 20.165H17.4893C18.0142 20.165 18.4496 20.6003 18.4496 21.1253C18.4496 21.6502 18.0142 22.0855 17.4893 22.0855Z" fill="#004663"/>
<path d="M18.5649 16.9639H12.1634C11.6384 16.9639 11.2031 16.5286 11.2031 16.0037C11.2031 15.4788 11.6384 15.0435 12.1634 15.0435L18.5649 15.0435C19.0899 15.0435 19.5252 15.4788 19.5252 16.0037C19.5252 16.5286 19.0899 16.9639 18.5649 16.9639Z" fill="#004663"/>
</svg>
