<svg width="21" height="20" viewBox="0 0 21 20" fill="none" xmlns="http://www.w3.org/2000/svg">
<path d="M19.5 9.99994C19.2348 9.99994 18.9804 10.1053 18.7929 10.2928C18.6054 10.4804 18.5 10.7347 18.5 10.9999V16.9999C18.5 17.2652 18.3946 17.5195 18.2071 17.707C18.0196 17.8946 17.7652 17.9999 17.5 17.9999H3.5C3.23478 17.9999 2.98043 17.8946 2.79289 17.707C2.60536 17.5195 2.5 17.2652 2.5 16.9999V2.99994C2.5 2.73472 2.60536 2.48037 2.79289 2.29283C2.98043 2.1053 3.23478 1.99994 3.5 1.99994H9.5C9.76522 1.99994 10.0196 1.89458 10.2071 1.70705C10.3946 1.51951 10.5 1.26516 10.5 0.999939C10.5 0.734722 10.3946 0.480368 10.2071 0.292832C10.0196 0.105296 9.76522 -6.10352e-05 9.5 -6.10352e-05H3.5C2.70435 -6.10352e-05 1.94129 0.31601 1.37868 0.878619C0.816071 1.44123 0.5 2.20429 0.5 2.99994V16.9999C0.5 17.7956 0.816071 18.5587 1.37868 19.1213C1.94129 19.6839 2.70435 19.9999 3.5 19.9999H17.5C18.2956 19.9999 19.0587 19.6839 19.6213 19.1213C20.1839 18.5587 20.5 17.7956 20.5 16.9999V10.9999C20.5 10.7347 20.3946 10.4804 20.2071 10.2928C20.0196 10.1053 19.7652 9.99994 19.5 9.99994ZM4.5 10.7599V14.9999C4.5 15.2652 4.60536 15.5195 4.79289 15.707C4.98043 15.8946 5.23478 15.9999 5.5 15.9999H9.74C9.87161 16.0007 10.0021 15.9755 10.1239 15.9257C10.2457 15.8759 10.3566 15.8026 10.45 15.7099L17.37 8.77994L20.21 5.99994C20.3037 5.90698 20.3781 5.79637 20.4289 5.67452C20.4797 5.55266 20.5058 5.42195 20.5058 5.28994C20.5058 5.15793 20.4797 5.02722 20.4289 4.90536C20.3781 4.7835 20.3037 4.6729 20.21 4.57994L15.97 0.289939C15.877 0.196211 15.7664 0.121816 15.6446 0.0710475C15.5227 0.0202789 15.392 -0.00585938 15.26 -0.00585938C15.128 -0.00585938 14.9973 0.0202789 14.8754 0.0710475C14.7536 0.121816 14.643 0.196211 14.55 0.289939L11.73 3.11994L4.79 10.0499C4.69732 10.1434 4.62399 10.2542 4.57423 10.376C4.52446 10.4979 4.49924 10.6283 4.5 10.7599ZM15.26 2.40994L18.09 5.23994L16.67 6.65994L13.84 3.82994L15.26 2.40994ZM6.5 11.1699L12.43 5.23994L15.26 8.06994L9.33 13.9999H6.5V11.1699Z" fill="#004663" stroke-width="1.0" stroke-miterlimit="10" />
</svg>
