<svg width="61" height="59" viewBox="0 0 61 59" fill="none" xmlns="http://www.w3.org/2000/svg">
<path d="M41.5912 55.1341H32.9156C24.3133 55.1341 17.3398 48.1606 17.3398 39.5583L17.3398 18.6911C17.3398 10.0887 24.3133 3.11517 32.9156 3.11517L39.6883 3.11517L57.167 20.5939V39.5583C57.167 48.1606 50.1935 55.1341 41.5912 55.1341Z" fill="#EEF1F7" stroke="#CBD0DC" stroke-width="6.23035"/>
<rect y="25.7383" width="40.6391" height="23.7061" rx="10.9031" fill="#D82042"/>
<path d="M6.73437 43.3482L6.73438 32.0186H10.7728C11.6542 32.0186 12.3845 32.179 12.9635 32.4998C13.5425 32.8207 13.9759 33.2596 14.2635 33.8165C14.5512 34.3697 14.695 34.993 14.695 35.6863C14.695 36.3834 14.5493 37.0103 14.258 37.5672C13.9703 38.1204 13.5351 38.5593 12.9524 38.8839C12.3734 39.2047 11.645 39.3651 10.7673 39.3651H7.99015V37.9157H10.6124C11.1693 37.9157 11.621 37.8199 11.9677 37.6281C12.3144 37.4326 12.5689 37.1671 12.7311 36.8315C12.8934 36.4958 12.9745 36.1141 12.9745 35.6863C12.9745 35.2585 12.8934 34.8786 12.7311 34.5467C12.5689 34.2148 12.3125 33.9548 11.9622 33.7667C11.6155 33.5786 11.1582 33.4846 10.5902 33.4846H8.44378L8.44378 43.3482H6.73437Z" fill="white"/>
<path d="M20.3668 43.3482H16.699V32.0186H20.483C21.5931 32.0186 22.5464 32.2454 23.343 32.699C24.1396 33.1489 24.75 33.7962 25.1741 34.6408C25.602 35.4816 25.8159 36.4903 25.8159 37.6668C25.8159 38.847 25.6001 39.8612 25.1686 40.7094C24.7408 41.5577 24.1212 42.2105 23.3098 42.6678C22.4985 43.1214 21.5174 43.3482 20.3668 43.3482ZM18.4084 41.8546H20.2727C21.1357 41.8546 21.8531 41.6923 22.4247 41.3678C22.9964 41.0395 23.4242 40.5656 23.7081 39.946C23.9921 39.3227 24.1341 38.563 24.1341 37.6668C24.1341 36.778 23.9921 36.0238 23.7081 35.4042C23.4279 34.7846 23.0093 34.3144 22.4524 33.9935C21.8955 33.6726 21.204 33.5122 20.3778 33.5122H18.4084V41.8546Z" fill="white"/>
<path d="M27.9416 43.3482L27.9416 32.0186H34.9673V33.4901H29.651V36.9421H34.4639V38.4081H29.651L29.651 43.3482H27.9416Z" fill="white"/>
</svg>
