<svg width="18" height="26" viewBox="0 0 18 26" fill="none" xmlns="http://www.w3.org/2000/svg">
<path d="M9 12.2674C8.14752 12.2674 7.32995 11.931 6.72716 11.3321C6.12436 10.7333 5.78571 9.92116 5.78571 9.07432C5.78571 8.22747 6.12436 7.4153 6.72716 6.81649C7.32995 6.21768 8.14752 5.88127 9 5.88127C9.85248 5.88127 10.67 6.21768 11.2728 6.81649C11.8756 7.4153 12.2143 8.22747 12.2143 9.07432C12.2143 9.49363 12.1311 9.90884 11.9696 10.2962C11.8081 10.6836 11.5713 11.0356 11.2728 11.3321C10.9744 11.6286 10.62 11.8638 10.2301 12.0243C9.84008 12.1848 9.42211 12.2674 9 12.2674ZM9 0.133789C6.61305 0.133789 4.32387 1.07573 2.63604 2.75241C0.948211 4.42908 0 6.70314 0 9.07432C0 15.7797 9 25.6781 9 25.6781C9 25.6781 18 15.7797 18 9.07432C18 6.70314 17.0518 4.42908 15.364 2.75241C13.6761 1.07573 11.3869 0.133789 9 0.133789Z" fill="#004663"/>
</svg>
