<svg width="37" height="37" viewBox="0 0 37 37" fill="none" xmlns="http://www.w3.org/2000/svg">
<path fill-rule="evenodd" clip-rule="evenodd" d="M12.3333 10.7917C12.3333 9.15616 12.983 7.58765 14.1395 6.43117C15.296 5.2747 16.8645 4.625 18.5 4.625C20.1355 4.625 21.704 5.2747 22.8605 6.43117C24.017 7.58765 24.6667 9.15616 24.6667 10.7917C24.6667 12.4272 24.017 13.9957 22.8605 15.1522C21.704 16.3086 20.1355 16.9583 18.5 16.9583C16.8645 16.9583 15.296 16.3086 14.1395 15.1522C12.983 13.9957 12.3333 12.4272 12.3333 10.7917ZM12.3333 20.0417C10.289 20.0417 8.32831 20.8538 6.88272 22.2994C5.43713 23.745 4.625 25.7056 4.625 27.75C4.625 28.9766 5.11228 30.153 5.97963 31.0204C6.84699 31.8877 8.02337 32.375 9.25 32.375H27.75C28.9766 32.375 30.153 31.8877 31.0204 31.0204C31.8877 30.153 32.375 28.9766 32.375 27.75C32.375 25.7056 31.5629 23.745 30.1173 22.2994C28.6717 20.8538 26.711 20.0417 24.6667 20.0417H12.3333Z" stroke="black" stroke-width="3.8" stroke-miterlimit="20" stroke-linecap="round" stroke-linejoin="round"/>
</svg>
