<svg width="40" height="37" viewBox="0 0 40 37" fill="none" xmlns="http://www.w3.org/2000/svg">
<path d="M20 23.125C22.7614 23.125 25 21.0543 25 18.5C25 15.9457 22.7614 13.875 20 13.875C17.2386 13.875 15 15.9457 15 18.5C15 21.0543 17.2386 23.125 20 23.125Z" stroke="black" stroke-width="3.8" stroke-miterlimit="20" stroke-linecap="round" stroke-linejoin="round"/>
<path d="M3.33325 19.8565V17.1432C3.33325 15.5399 4.74992 14.214 6.49992 14.214C9.51659 14.214 10.7499 12.2407 9.23325 9.8203C8.36659 8.4328 8.88325 6.62905 10.3999 5.82738L13.2833 4.30113C14.5999 3.57655 16.2999 4.00822 17.0833 5.22613L17.2666 5.51905C18.7666 7.93947 21.2333 7.93947 22.7499 5.51905L22.9333 5.22613C23.7166 4.00822 25.4166 3.57655 26.7333 4.30113L29.6166 5.82738C31.1333 6.62905 31.6499 8.4328 30.7833 9.8203C29.2666 12.2407 30.4999 14.214 33.5166 14.214C35.2499 14.214 36.6833 15.5245 36.6833 17.1432V19.8565C36.6833 21.4599 35.2666 22.7857 33.5166 22.7857C30.4999 22.7857 29.2666 24.759 30.7833 27.1795C31.6499 28.5824 31.1333 30.3707 29.6166 31.1724L26.7333 32.6986C25.4166 33.4232 23.7166 32.9916 22.9333 31.7736L22.7499 31.4807C21.2499 29.0603 18.7833 29.0603 17.2666 31.4807L17.0833 31.7736C16.2999 32.9916 14.5999 33.4232 13.2833 32.6986L10.3999 31.1724C8.88325 30.3707 8.36659 28.567 9.23325 27.1795C10.7499 24.759 9.51659 22.7857 6.49992 22.7857C4.74992 22.7857 3.33325 21.4599 3.33325 19.8565Z" stroke="black" stroke-width="3.8" stroke-miterlimit="10" stroke-linecap="round" stroke-linejoin="round"/>
</svg>
