<svg width="314" height="314" viewBox="0 0 314 314" fill="none" xmlns="http://www.w3.org/2000/svg">
<path d="M124.292 203.89V110.109C124.293 108.936 124.611 107.784 125.211 106.776C125.811 105.767 126.671 104.939 127.701 104.377C128.731 103.815 129.893 103.541 131.066 103.582C132.238 103.624 133.378 103.98 134.366 104.614L207.318 151.491C208.242 152.083 209.002 152.898 209.529 153.861C210.055 154.823 210.331 155.902 210.331 157C210.331 158.097 210.055 159.176 209.529 160.139C209.002 161.101 208.242 161.916 207.318 162.508L134.366 209.398C133.378 210.032 132.238 210.388 131.066 210.43C129.893 210.472 128.731 210.197 127.701 209.635C126.671 209.073 125.811 208.245 125.211 207.236C124.611 206.228 124.293 205.077 124.292 203.903V203.89Z" fill="black"/>
<path d="M13.0835 157C13.0835 77.5189 77.5189 13.0835 157 13.0835C236.481 13.0835 300.917 77.5189 300.917 157C300.917 236.481 236.481 300.917 157 300.917C77.5189 300.917 13.0835 236.481 13.0835 157ZM157 32.7085C124.036 32.7085 92.4219 45.8035 69.1127 69.1127C45.8035 92.4219 32.7085 124.036 32.7085 157C32.7085 189.964 45.8035 221.578 69.1127 244.888C92.4219 268.197 124.036 281.292 157 281.292C189.964 281.292 221.578 268.197 244.888 244.888C268.197 221.578 281.292 189.964 281.292 157C281.292 124.036 268.197 92.4219 244.888 69.1127C221.578 45.8035 189.964 32.7085 157 32.7085Z" fill="black"/>
</svg>
