<svg xmlns="http://www.w3.org/2000/svg" width="78" height="65" viewBox="0 0 78 65" fill="none">
  <path d="M16.8996 27.137C16.1591 27.8773 15.5717 28.7562 15.171 29.7235C14.7702 30.6909 14.564 31.7277 14.564 32.7747C14.564 33.8218 14.7702 34.8586 15.171 35.8259C15.5717 36.7932 16.1591 37.6721 16.8996 38.4124L25.9205 47.4302C27.2155 48.7253 28.917 49.5349 30.7388 49.723C32.5606 49.911 34.3916 49.4661 35.9239 48.4629C37.4562 47.4596 38.5963 45.9594 39.1526 44.2144C39.7088 42.4694 39.6473 40.5861 38.9782 38.8812L41.5005 36.3589L61.9306 59.9301C62.7318 60.8537 63.7146 61.6023 64.8177 62.1295C65.9209 62.6567 67.1208 62.9511 68.3426 62.9944C69.5645 63.0377 70.7822 62.8289 71.9199 62.3811C73.0576 61.9333 74.0909 61.256 74.9554 60.3914C75.82 59.5269 76.4973 58.4936 76.9451 57.3559C77.3929 56.2182 77.6017 55.0005 77.5584 53.7786C77.5151 52.5567 77.2207 51.3568 76.6935 50.2536C76.1663 49.1504 75.4176 48.1676 74.4941 47.3664L50.9231 26.9361L53.4454 24.417C55.1509 25.0877 57.0354 25.1502 58.7816 24.5942C60.5278 24.0381 62.0291 22.8973 63.0327 21.364C64.0364 19.8306 64.4811 17.9983 64.2919 16.1754C64.1028 14.3526 63.2914 12.6506 61.9943 11.3559L52.9767 2.33493C51.6816 1.03986 49.9801 0.230213 48.1583 0.0421502C46.3365 -0.145913 44.5055 0.299074 42.9732 1.30228C41.4409 2.30549 40.3008 3.80573 39.7445 5.55072C39.1883 7.29572 39.2499 9.17903 39.9189 10.884L25.4517 25.3513C24.0071 24.7842 22.4284 24.6511 20.9092 24.9683C19.3901 25.2855 17.9965 26.0392 16.8996 27.137Z" fill="#004663"/>
  <path d="M2.56396 62.5H45.564" stroke="#004663" stroke-width="5" stroke-linecap="round"/>
</svg>
