<svg xmlns="http://www.w3.org/2000/svg" width="98" height="97" viewBox="0 0 98 97" fill="none">
  <g clip-path="url(#clip0_468_2526)">
    <path d="M53.0628 75.7138H45.2489C43.9016 75.7138 42.8239 74.9055 42.5544 73.5583L41.2072 68.7083L40.1294 68.1694L35.8183 70.5944C34.7405 71.1333 33.3933 71.1333 32.585 70.0555L26.9266 64.3972C26.1183 63.5888 25.8489 62.2416 26.3878 61.1638L28.8128 56.8527L28.2739 55.775L23.4239 54.4277C22.3461 54.1583 21.2683 53.0805 21.2683 51.7333V43.9194C21.2683 42.5722 22.0766 41.4944 23.4239 41.225L28.2739 39.8777L28.8128 38.8L26.3878 34.4888C25.8489 33.4111 25.8489 32.0638 26.9266 31.2555L32.585 25.5972C33.3933 24.7888 34.7405 24.5194 35.8183 25.0583L40.1294 27.4833L41.2072 26.9444L42.5544 22.0944C42.8239 21.0166 43.9016 19.9388 45.2489 19.9388H53.0628C54.41 19.9388 55.4878 20.7472 55.7572 22.0944L57.1044 26.9444L58.1822 27.4833L62.4933 25.0583C63.5711 24.5194 64.9183 24.5194 65.7266 25.5972L71.385 31.2555C72.1933 32.0638 72.4628 33.4111 71.9239 34.4888L69.4989 38.8L70.0378 39.8777L74.8878 41.225C75.9655 41.4944 77.0433 42.5722 77.0433 43.9194V51.7333C77.0433 53.0805 76.235 54.1583 74.8878 54.4277L70.0378 55.775L69.4989 56.8527L71.9239 61.1638C72.4628 62.2416 72.4627 63.5888 71.385 64.3972L65.7266 70.0555C64.9183 70.8638 63.5711 71.1333 62.4933 70.5944L58.1822 68.1694L57.1044 68.7083L55.7572 73.5583C55.2183 74.9055 54.1405 75.7138 53.0628 75.7138ZM47.135 70.325H50.9072L52.2544 64.6666L53.6016 64.1277C54.6794 63.8583 55.4878 63.3194 56.5655 63.05L57.9128 62.2416L63.0322 65.2055L65.7266 62.5111L62.7628 57.3916L63.5711 56.0444C64.11 55.2361 64.3794 54.1583 64.6489 53.0805L65.1878 51.7333L70.8461 50.3861V46.6138L65.1878 45.2666L64.6489 43.9194C64.3794 42.8416 63.8405 42.0333 63.5711 40.9555L62.7628 39.6083L65.7266 34.4888L63.0322 31.7944L57.9128 34.7583L56.5655 33.95C55.7572 33.4111 54.6794 33.1416 53.6016 32.8722L52.2544 32.3333L50.9072 26.675H47.135L45.7878 32.3333L44.4405 32.8722C43.3628 33.1416 42.5544 33.6805 41.4766 33.95L40.1294 34.7583L35.01 31.7944L32.3155 34.4888L35.2794 39.6083L34.4711 40.9555C33.9322 41.7638 33.6628 42.8416 33.3933 43.9194L32.8544 45.2666L27.1961 46.6138V50.3861L32.8544 51.7333L33.3933 53.0805C33.6628 54.1583 34.2016 54.9666 34.4711 56.0444L35.2794 57.3916L32.3155 62.5111L35.01 65.2055L40.1294 62.2416L41.4766 63.05C42.285 63.5888 43.3628 63.8583 44.4405 64.1277L45.7878 64.6666L47.135 70.325Z" fill="#004663"/>
    <path d="M49.0209 60.0862C42.5543 60.0862 37.4348 54.9667 37.4348 48.5001C37.4348 42.0334 42.5543 36.9139 49.0209 36.9139C55.4876 36.9139 60.607 42.0334 60.607 48.5001C60.607 54.9667 55.4876 60.0862 49.0209 60.0862ZM49.0209 42.3028C45.5181 42.3028 42.8237 44.9973 42.8237 48.5001C42.8237 52.0028 45.5181 54.6973 49.0209 54.6973C52.5237 54.6973 55.2181 52.0028 55.2181 48.5001C55.2181 44.9973 52.5237 42.3028 49.0209 42.3028Z" fill="#004663"/>
    <path d="M49.021 5.38892C47.4044 5.38892 46.3266 6.46669 46.3266 8.08336C46.3266 9.70003 47.4044 10.7778 49.021 10.7778C69.7682 10.7778 86.7432 27.7528 86.7432 48.5C86.7432 69.2472 69.7682 86.2223 49.021 86.2223C28.2738 86.2223 11.2988 69.2472 11.2988 48.5C11.2988 40.9556 13.4544 33.6806 17.7655 27.4834V30.7167C17.7655 32.3334 18.8432 33.4111 20.4599 33.4111C22.0766 33.4111 23.1544 32.3334 23.1544 30.7167V17.2445H9.68213C8.06547 17.2445 6.98769 18.3222 6.98769 19.9389C6.98769 21.5556 8.06547 22.6334 9.68213 22.6334H14.5321C8.8738 29.9084 5.90991 39.0695 5.90991 48.5C5.90991 72.2111 25.3099 91.6111 49.021 91.6111C72.7321 91.6111 92.1321 72.2111 92.1321 48.5C92.1321 24.7889 72.7321 5.38892 49.021 5.38892Z" fill="#004663"/>
  </g>
  <defs>
    <clipPath id="clip0_468_2526">
      <rect width="97" height="97" fill="white" transform="translate(0.520996)"/>
    </clipPath>
  </defs>
</svg>
