<svg xmlns="http://www.w3.org/2000/svg" width="192" height="192" viewBox="0 0 192 192" fill="none">
  <path d="M110.709 107.954C112.903 106.775 115.415 106.104 118.089 106.104H118.098C118.37 106.104 118.497 105.777 118.298 105.596C115.516 103.1 112.339 101.084 108.895 99.6301C108.859 99.612 108.823 99.6029 108.787 99.5848C114.417 95.4956 118.08 88.8496 118.08 81.3512C118.08 68.9296 108.034 58.8654 95.6397 58.8654C83.2452 58.8654 73.2082 68.9296 73.2082 81.3512C73.2082 88.8496 76.8712 95.4956 82.5108 99.5848C82.4745 99.6029 82.4383 99.612 82.402 99.6301C78.3491 101.344 74.7133 103.801 71.5852 106.938C68.4752 110.042 65.9992 113.722 64.2954 117.773C62.6191 121.739 61.7144 125.989 61.6297 130.294C61.6273 130.391 61.6443 130.487 61.6797 130.577C61.715 130.668 61.7681 130.75 61.8357 130.819C61.9033 130.888 61.9841 130.943 62.0733 130.981C62.1625 131.019 62.2583 131.038 62.3551 131.038H67.7862C68.176 131.038 68.5024 130.72 68.5115 130.331C68.6929 123.331 71.4945 116.776 76.4541 111.807C81.5769 106.666 88.3952 103.837 95.6487 103.837C100.79 103.837 105.722 105.261 109.974 107.926C110.084 107.995 110.209 108.034 110.338 108.038C110.467 108.043 110.595 108.014 110.709 107.954ZM95.6487 96.9463C91.4961 96.9463 87.5883 95.3233 84.6415 92.3766C83.1917 90.9305 82.0423 89.2118 81.2596 87.3196C80.4768 85.4274 80.0762 83.399 80.0809 81.3512C80.0809 77.1895 81.7038 73.2726 84.6415 70.3259C87.5792 67.3792 91.487 65.7562 95.6487 65.7562C99.8104 65.7562 103.709 67.3792 106.656 70.3259C108.106 71.772 109.255 73.4907 110.038 75.3829C110.821 77.2751 111.221 79.3035 111.217 81.3512C111.217 85.513 109.594 89.4299 106.656 92.3766C103.709 95.3233 99.8014 96.9463 95.6487 96.9463ZM128.997 118.526H121.381V110.909C121.381 110.51 121.054 110.184 120.655 110.184H115.578C115.179 110.184 114.852 110.51 114.852 110.909V118.526H107.236C106.837 118.526 106.511 118.852 106.511 119.251V124.328C106.511 124.727 106.837 125.054 107.236 125.054H114.852V132.67C114.852 133.069 115.179 133.395 115.578 133.395H120.655C121.054 133.395 121.381 133.069 121.381 132.67V125.054H128.997C129.396 125.054 129.722 124.727 129.722 124.328V119.251C129.722 118.852 129.396 118.526 128.997 118.526Z" fill="#004663"/>
</svg>
